<svg version="1.1" id="Layer_1" xmlns="http://www.w3.org/2000/svg" xmlns:xlink="http://www.w3.org/1999/xlink" x="0px" y="0px"
	 width="100%" viewBox="0 0 1000 1080" enable-background="new 0 0 1000 1080" xml:space="preserve">
<path fill="#81C122" opacity="1.000000" stroke="none" 
	d="
M501.000000,1.000000 
	C667.595764,1.000000 834.191589,1.000000 1001.000000,1.000000 
	C1001.000000,167.358170 1001.000000,333.716431 1000.537354,500.537842 
	C833.705017,501.011444 667.335266,501.021912 500.973511,500.567322 
	C500.987610,333.734894 500.993805,167.367447 501.000000,1.000000 
M733.666321,372.893433 
	C735.887634,374.027130 738.009338,375.477264 740.355103,376.215393 
	C743.370422,377.164215 744.438171,378.670349 744.224060,381.924469 
	C743.797729,388.402008 743.886353,394.913116 743.750793,401.410156 
	C743.604492,408.420502 745.418518,410.844238 750.870728,410.891418 
	C756.352478,410.938873 758.410217,408.348633 758.261353,401.610046 
	C758.169250,397.445404 758.540100,393.211884 757.913574,389.130463 
	C756.744873,381.516327 758.341309,375.933380 766.678955,373.964417 
	C767.605591,373.745544 768.452332,373.046631 769.253479,372.457916 
	C793.988586,354.282654 810.525879,330.454315 816.784424,300.346802 
	C822.218384,274.206116 810.974060,255.138443 786.470093,246.491806 
	C782.841309,245.211365 779.054321,244.379288 774.579834,243.126877 
	C778.505066,241.552902 781.728699,240.369522 784.864014,238.985931 
	C812.833862,226.642944 825.518982,203.627838 819.025513,174.515839 
	C811.333435,140.030029 789.352051,115.114433 762.030884,94.473572 
	C754.505737,88.788422 745.592224,89.736435 738.235474,95.452034 
	C716.067444,112.674667 697.893433,133.283371 687.259827,159.653778 
	C681.275879,174.493378 678.796143,189.870239 684.105652,205.517944 
	C690.405151,224.083206 704.689819,234.327744 722.155518,241.059586 
	C723.705200,241.656860 725.235962,242.303391 727.899414,243.382339 
	C694.849548,249.338654 678.711060,271.664398 685.440063,301.675781 
	C692.080872,331.294098 708.096130,355.000610 733.666321,372.893433 
z"/>
<path fill="#FFFFFF" opacity="1.000000" stroke="none" 
	d="
M500.537354,1.000000 
	C500.993805,167.367447 500.987610,333.734894 500.992157,500.549530 
	C501.002899,500.996735 501.039551,500.960419 500.772156,500.970428 
	C500.338501,501.045135 500.172241,501.109863 499.549072,501.093872 
	C333.061432,501.008728 167.030716,501.004364 1.000000,501.000000 
	C1.000000,334.404266 1.000000,167.808502 1.000000,1.000000 
	C167.358170,1.000000 333.716431,1.000000 500.537354,1.000000 
M244.066132,378.242493 
	C243.928741,386.359680 243.804001,394.477142 243.649689,402.593994 
	C243.538116,408.462585 245.645157,410.893707 250.904541,410.892059 
	C256.208099,410.890442 258.428833,408.416718 258.331024,402.745544 
	C258.188171,394.464539 258.097595,386.182648 258.674713,377.710693 
	C262.523499,375.766968 266.765442,374.346344 270.158356,371.796143 
	C295.665161,352.624451 312.421661,327.705200 317.598480,295.943359 
	C321.159790,274.093445 310.784058,256.526306 290.315094,247.984421 
	C285.556427,245.998596 280.487366,244.756607 275.032013,243.002213 
	C276.472382,242.434036 277.483551,242.011597 278.511047,241.633423 
	C289.740936,237.499985 300.083740,231.895340 308.016479,222.715683 
	C322.300415,206.186600 323.503815,187.145889 317.358673,167.306946 
	C307.980164,137.029480 287.978851,114.370155 263.501404,95.346642 
	C260.249817,92.819542 255.227783,92.570435 250.239441,91.118896 
	C245.939392,92.718666 240.891632,93.369408 237.460846,96.072456 
	C215.441132,113.421349 197.317474,134.030533 186.885254,160.500687 
	C181.924515,173.087830 179.627533,186.161362 182.481186,199.636414 
	C186.695099,219.534668 200.019699,231.486633 217.850983,239.321808 
	C220.787598,240.612183 223.799957,241.730164 227.932678,243.392578 
	C225.835571,243.771576 225.069534,243.904495 224.305664,244.048828 
	C195.403656,249.509171 180.145325,269.934357 185.084610,298.808380 
	C190.288025,329.226379 206.610535,353.230682 231.481995,371.322571 
	C235.154129,373.993744 239.756149,375.386627 244.066132,378.242493 
z"/>
<path fill="#000000" opacity="1.000000" stroke="none" 
	d="
M1.000000,501.462646 
	C167.030716,501.004364 333.061432,501.008728 499.626160,501.282654 
	C500.322388,501.789001 500.543762,501.937653 500.905823,502.454681 
	C500.991486,666.932190 500.995209,830.953125 501.004486,994.974060 
	C501.004578,996.970276 501.075928,998.966431 500.640930,1000.970520 
	C333.778564,1000.985596 167.389282,1000.992798 1.000000,1001.000000 
	C1.000000,834.641785 1.000000,668.283508 1.000000,501.462646 
M259.881714,877.198669 
	C264.093964,874.888184 268.737335,873.121460 272.448547,870.179077 
	C296.692657,850.956970 312.705322,826.491211 317.699524,795.654236 
	C321.137482,774.426819 310.436218,756.199646 290.494598,748.047607 
	C285.706451,746.090210 280.652863,744.782227 275.064697,742.961609 
	C277.984222,741.828247 280.436554,740.956482 282.825317,739.935974 
	C298.174896,733.378296 310.844421,723.918396 317.143280,707.738098 
	C323.301880,691.918152 321.160706,676.277344 315.310028,661.009827 
	C305.060089,634.262146 286.773254,613.545715 264.624115,596.106201 
	C261.015594,593.265015 255.522003,592.817993 250.122925,591.144714 
	C245.969894,592.669250 241.122864,593.291992 237.777756,595.866394 
	C217.736115,611.290466 201.193909,629.838989 190.168671,652.815613 
	C183.131729,667.480591 179.078552,682.899780 182.389725,699.252625 
	C186.592285,720.007629 200.727478,732.103271 219.329742,739.963745 
	C221.873734,741.038635 224.474426,741.979309 228.298691,743.468933 
	C226.373077,743.775085 225.809448,743.853027 225.250259,743.955261 
	C199.367126,748.684082 180.057800,766.769653 184.801804,797.918335 
	C187.903915,818.286438 197.256409,835.708252 210.028824,851.443298 
	C219.242508,862.794128 229.678192,872.755615 244.057510,878.467834 
	C243.979645,886.912048 243.861176,895.356140 243.839767,903.800537 
	C243.827682,908.571899 246.071136,910.809875 250.736862,910.924377 
	C255.574661,911.043030 258.165222,908.645325 258.161774,903.802551 
	C258.156738,896.682617 257.937317,889.562134 257.993805,882.443359 
	C258.007263,880.749146 258.752167,879.060791 259.881714,877.198669 
z"/>
<path fill="#FFFFFF" opacity="1.000000" stroke="none" 
	d="
M501.113983,1000.962646 
	C501.075928,998.966431 501.004578,996.970276 501.004486,994.974060 
	C500.995209,830.953125 500.991486,666.932190 501.003601,502.204407 
	C501.026398,501.318573 501.032990,501.139496 501.039551,500.960419 
	C501.039551,500.960419 501.002899,500.996735 500.984253,501.014526 
	C667.335266,501.021912 833.705017,501.011444 1000.537354,501.000488 
	C1001.000000,667.358215 1001.000000,833.716492 1000.534973,1000.537231 
	C833.751282,1000.987305 667.432617,1000.974976 501.113983,1000.962646 
M807.292297,644.209778 
	C796.411621,625.327942 781.867737,609.647949 764.892456,596.176208 
	C756.333618,589.383789 746.242737,589.072571 737.700317,595.773193 
	C717.129456,611.908936 700.040100,631.065552 689.131653,655.110046 
	C682.766357,669.140625 679.269714,683.836487 682.418823,699.304504 
	C686.605225,719.867798 700.557556,731.887268 718.901611,739.815735 
	C721.544922,740.958191 724.263062,741.927734 728.310730,743.510864 
	C726.147400,743.810425 725.545410,743.865295 724.955017,743.979675 
	C698.901062,749.024414 680.178894,766.970886 684.807251,797.703430 
	C688.331360,821.103638 699.825195,840.481079 715.473572,857.659302 
	C722.928955,865.843506 731.417175,872.723511 741.792786,877.075928 
	C742.937805,877.556335 744.013367,879.723877 744.028442,881.120667 
	C744.105591,888.281799 743.832764,895.446899 743.666443,902.610291 
	C743.532288,908.385010 745.756409,910.911682 750.998840,910.900818 
	C756.200012,910.890076 758.392334,908.321777 758.348083,902.558105 
	C758.285706,894.428589 758.332336,886.298279 758.332336,878.597839 
	C763.394836,875.574951 768.800903,873.139160 773.273071,869.542114 
	C795.083862,851.999146 810.118652,829.833557 816.468018,802.405151 
	C823.016968,774.114990 810.072510,752.798096 782.356201,745.114075 
	C779.994202,744.459229 777.576904,744.003723 775.287292,743.478943 
	C782.193848,739.998108 789.166382,737.170471 795.417053,733.205078 
	C814.172485,721.306519 822.380249,704.039001 820.271667,681.871033 
	C819.001221,668.514343 814.078308,656.425903 807.292297,644.209778 
z"/>
<path fill="#121324" opacity="1.000000" stroke="none" 
	d="
M500.640930,1000.970520 
	C667.432617,1000.974976 833.751282,1000.987305 1000.534973,1000.999878 
	C1001.000000,1027.656738 1001.000000,1054.313599 1001.000000,1080.950439 
	C667.666687,1080.950439 334.333313,1080.950439 1.000000,1080.950439 
	C1.000000,1054.577271 1.000000,1028.253662 1.000000,1001.465027 
	C167.389282,1000.992798 333.778564,1000.985596 500.640930,1000.970520 
M136.080078,1051.791016 
	C133.023682,1053.491821 128.990891,1048.488159 126.307610,1053.443237 
	C130.665207,1054.217651 135.191696,1055.010010 139.200928,1053.912598 
	C141.508148,1053.281128 144.228989,1049.698975 144.441193,1047.244263 
	C144.620667,1045.168213 141.762009,1042.442139 139.673920,1040.686401 
	C138.147903,1039.403320 135.522705,1039.517578 133.702835,1038.464233 
	C132.359894,1037.686768 131.525620,1036.030640 130.464691,1034.766113 
	C131.919998,1033.878540 133.444168,1032.164795 134.815964,1032.279297 
	C137.494919,1032.502441 140.088715,1033.747559 143.599350,1034.845215 
	C142.932114,1033.234009 142.656525,1031.292969 141.975098,1031.138306 
	C138.554504,1030.361084 134.906372,1029.317871 131.586609,1029.867798 
	C129.764679,1030.169556 127.312843,1033.369507 127.196404,1035.381348 
	C127.080040,1037.391602 129.189301,1039.913818 130.951019,1041.524780 
	C132.287720,1042.747070 134.757538,1042.630493 136.452438,1043.588501 
	C138.157700,1044.552490 139.528320,1046.108398 141.045547,1047.405029 
	C139.649292,1048.809082 138.253036,1050.213013 136.080078,1051.791016 
M195.015778,1049.344238 
	C195.015778,1051.148560 195.015778,1052.952881 195.015778,1055.143677 
	C201.991531,1054.518433 196.299072,1048.057251 199.746094,1046.234985 
	C204.164963,1047.939331 203.508377,1056.204468 210.970093,1054.767700 
	C208.063583,1050.685791 205.399658,1046.944580 202.140244,1042.366943 
	C204.949371,1040.028442 207.586304,1037.833252 210.223236,1035.638062 
	C209.819305,1035.115479 209.415390,1034.593018 209.011459,1034.070435 
	C205.742661,1036.315430 202.473862,1038.560547 198.685806,1041.162109 
	C198.685806,1038.388672 198.695557,1035.961060 198.683624,1033.533325 
	C198.663162,1029.365723 198.657486,1029.365723 195.020721,1029.463379 
	C195.020721,1035.762207 195.020721,1042.073120 195.015778,1049.344238 
M172.899460,1037.566406 
	C167.120087,1033.453857 161.337280,1034.311279 158.644684,1039.679810 
	C156.598495,1043.759399 157.310410,1049.885498 160.336304,1052.643677 
	C163.493408,1055.521606 167.203125,1055.997803 170.872910,1053.903687 
	C175.454880,1051.288940 175.946762,1046.875977 175.083374,1042.212158 
	C174.823151,1040.806641 173.969482,1039.510986 172.899460,1037.566406 
M34.972378,1040.620728 
	C36.303768,1044.361084 37.540142,1048.139526 39.020729,1051.819946 
	C39.506165,1053.026489 40.625427,1053.978027 41.454845,1055.046265 
	C42.393215,1053.902466 43.704540,1052.901245 44.205746,1051.590332 
	C46.451225,1045.717407 48.476898,1039.759888 50.556664,1033.824097 
	C51.085007,1032.316284 51.520760,1030.775879 51.999046,1029.250488 
	C51.476799,1029.089111 50.954552,1028.927612 50.432304,1028.766235 
	C47.596230,1036.515503 44.760151,1044.264893 41.652695,1052.755737 
	C39.900513,1047.826660 38.448990,1043.785156 37.026543,1039.733398 
	C33.575989,1029.905151 33.581402,1029.903198 31.068878,1029.564819 
	C32.313610,1033.014404 33.548664,1036.437134 34.972378,1040.620728 
M185.008682,1054.907227 
	C186.502304,1054.879272 188.083649,1055.140137 189.458832,1054.722168 
	C190.382141,1054.441650 191.013321,1053.199829 191.775177,1052.387939 
	C190.849777,1052.138184 189.907898,1051.937012 189.002228,1051.629272 
	C186.804977,1050.882812 183.367752,1050.643188 182.721603,1049.184448 
	C181.658539,1046.784424 181.635941,1043.246582 182.680130,1040.842285 
	C183.312698,1039.385864 186.776138,1039.148926 188.975769,1038.387207 
	C190.041107,1038.018311 191.125000,1037.702881 192.200500,1037.363159 
	C185.577194,1033.839844 180.961777,1035.245605 178.727371,1040.210449 
	C176.088715,1046.073364 178.188492,1051.618896 185.008682,1054.907227 
M51.884247,1050.222534 
	C56.084064,1056.056396 62.012466,1056.965698 66.027557,1052.391846 
	C55.744843,1053.614746 53.997013,1052.775879 53.267807,1045.937012 
	C57.575466,1045.937012 61.850578,1045.937012 66.095123,1045.937012 
	C66.406616,1039.154907 64.248520,1035.499390 59.851768,1034.985718 
	C55.431183,1034.469482 51.462288,1037.955444 50.998318,1043.119873 
	C50.810631,1045.209106 51.336384,1047.362549 51.884247,1050.222534 
M110.126648,1037.347168 
	C106.311546,1034.166016 102.300407,1033.922363 98.367699,1036.941528 
	C94.861649,1039.633057 93.848145,1045.812378 96.044243,1050.169189 
	C97.996323,1054.041992 101.304787,1055.558594 105.508446,1054.973389 
	C112.587120,1053.988159 115.106834,1045.568970 110.126648,1037.347168 
M959.593262,1045.168457 
	C960.526245,1041.635254 958.737488,1039.980225 955.514526,1040.061890 
	C952.591248,1040.135986 951.701111,1042.128906 952.112854,1044.947510 
	C952.256104,1045.928101 951.462463,1047.026733 951.532043,1048.041626 
	C951.645813,1049.700806 951.585388,1052.136353 952.565186,1052.786011 
	C953.909607,1053.677246 956.573425,1053.897217 957.887634,1053.104614 
	C958.972778,1052.450195 958.990112,1049.922363 959.337585,1048.195801 
	C959.486023,1047.458252 959.270996,1046.647583 959.593262,1045.168457 
M147.778122,1030.781250 
	C147.773163,1032.945190 147.751129,1035.109131 147.766953,1037.272949 
	C147.796143,1041.266357 147.298813,1045.375366 148.107498,1049.206787 
	C148.551208,1051.309204 151.088638,1053.092285 152.975967,1054.666870 
	C153.366623,1054.992798 155.058273,1053.759399 156.764801,1052.955078 
	C150.394409,1050.096924 150.144974,1049.280518 151.404922,1038.565674 
	C153.059021,1037.895752 154.562469,1037.286743 156.065918,1036.677734 
	C155.007462,1035.341919 154.264618,1035.137085 153.508514,1035.012939 
	C152.757248,1034.889526 151.992661,1034.847290 151.302979,1034.776611 
	C150.950958,1029.157715 150.950958,1029.157715 147.778122,1030.781250 
M79.345177,1055.073242 
	C80.899963,1054.669800 82.454750,1054.266479 84.009537,1053.863037 
	C73.773331,1052.496338 71.318367,1051.098633 71.434921,1045.393311 
	C71.479301,1043.220703 72.092911,1039.981079 73.548019,1039.146118 
	C76.370300,1037.526489 79.972008,1037.265259 83.890999,1036.280151 
	C80.040298,1034.462891 76.494171,1034.119141 73.210007,1036.518433 
	C69.504601,1039.225464 68.516258,1043.169312 69.515709,1047.578979 
	C70.596794,1052.348877 73.392960,1055.137085 79.345177,1055.073242 
M909.417297,1048.231445 
	C910.622437,1048.469604 911.827576,1048.707764 914.687256,1049.272827 
	C911.591248,1050.988159 909.757446,1052.004150 907.775269,1053.102295 
	C913.000610,1054.538330 916.731995,1051.124146 915.837341,1045.525269 
	C915.525085,1043.570679 913.780273,1041.534912 912.131714,1040.254761 
	C911.459167,1039.732300 908.190369,1040.905396 908.043823,1041.676392 
	C907.671997,1043.631348 908.397949,1045.795288 909.417297,1048.231445 
M87.151901,1035.660278 
	C87.171684,1039.801392 87.020103,1043.952393 87.257111,1048.080933 
	C87.519722,1052.656128 88.700569,1053.835693 92.692940,1054.432373 
	C87.868225,1047.814209 88.013603,1038.521484 93.499817,1035.627686 
	C91.891129,1035.147461 90.673370,1034.783936 89.746437,1034.507202 
	C89.425430,1032.301880 89.180267,1030.617554 88.935104,1028.933228 
	C88.350357,1028.984863 87.765617,1029.036377 87.180870,1029.087891 
	C87.180870,1030.964478 87.180870,1032.840942 87.151901,1035.660278 
M969.688599,1045.573242 
	C968.476135,1045.471924 967.263611,1045.370605 966.051147,1045.269287 
	C965.896851,1044.857056 965.742493,1044.444824 965.588196,1044.032471 
	C967.704468,1043.001221 969.820801,1041.970093 972.079651,1040.869385 
	C966.216125,1039.241943 961.757629,1043.281738 963.156921,1049.090820 
	C963.603882,1050.946167 965.631409,1053.011230 967.436035,1053.738159 
	C968.609558,1054.210938 971.874634,1052.680786 972.091003,1051.618164 
	C972.445801,1049.875366 971.083740,1047.783081 969.688599,1045.573242 
M924.182861,1053.955322 
	C928.028564,1051.232300 929.268005,1046.073730 926.986084,1042.287964 
	C925.401245,1039.658447 921.275574,1038.787354 919.892761,1041.282227 
	C918.561829,1043.683350 917.929626,1047.019287 918.417725,1049.682983 
	C918.728394,1051.378174 921.641113,1052.596558 924.182861,1053.955322 
M735.474854,1041.364990 
	C735.529480,1041.207642 735.613220,1041.053223 735.629822,1040.891968 
	C735.643738,1040.756836 735.579407,1040.613770 735.549683,1040.474121 
	C734.703979,1041.052002 733.447144,1041.445679 733.089783,1042.242554 
	C732.012329,1044.645630 731.284668,1047.205566 730.069458,1050.720093 
	C728.316467,1046.164551 727.072632,1042.932129 725.828735,1039.699707 
	C725.263611,1039.948730 724.698425,1040.197632 724.133301,1040.446655 
	C725.828064,1045.064087 727.522827,1049.681519 729.217590,1054.298828 
	C729.767700,1054.323608 730.317810,1054.348389 730.867920,1054.373047 
	C732.319092,1050.272705 733.770203,1046.172363 735.474854,1041.364990 
M891.626648,1048.813721 
	C892.091431,1054.800659 886.974182,1050.162231 884.793518,1052.253540 
	C887.774536,1054.371460 890.518372,1055.118774 892.878784,1052.385864 
	C895.531311,1049.315063 893.368225,1047.049194 890.765869,1045.265503 
	C891.823120,1043.597046 892.761292,1042.116455 893.856445,1040.388184 
	C890.852417,1040.388184 888.304688,1040.388184 885.756958,1040.388184 
	C885.730164,1040.670532 885.703430,1040.952881 885.676636,1041.235229 
	C887.106689,1041.586548 888.536743,1041.937988 890.174988,1042.340576 
	C889.226379,1043.778687 888.427673,1044.989502 887.523193,1046.360718 
	C888.857361,1047.051025 889.987854,1047.635864 891.626648,1048.813721 
M898.984497,1039.929077 
	C898.209229,1040.142456 897.433960,1040.355713 896.658752,1040.569092 
	C896.680664,1040.832886 896.702515,1041.096680 896.724426,1041.360474 
	C898.137207,1041.676758 899.549988,1041.993042 901.082764,1042.336304 
	C900.129272,1043.931763 899.396912,1045.157104 898.986572,1045.843750 
	C900.452393,1047.521118 901.615906,1048.852539 902.779480,1050.184082 
	C900.645081,1050.847412 898.510681,1051.510620 895.971985,1052.299561 
	C898.724121,1054.454956 901.467712,1055.097168 903.828979,1052.445435 
	C906.531616,1049.410400 904.452637,1047.104492 901.815369,1045.319580 
	C902.843994,1043.602905 903.780457,1042.040161 905.044128,1039.931274 
	C902.721924,1039.931274 901.245300,1039.931274 898.984497,1039.929077 
M792.332825,1048.364136 
	C790.163635,1046.847412 787.994385,1045.330811 785.825134,1043.814087 
	C785.935547,1043.399780 786.045959,1042.985352 786.156372,1042.571045 
	C788.145813,1042.372803 790.135254,1042.174561 792.777832,1041.911255 
	C789.467468,1039.152710 786.639587,1039.088867 784.622070,1041.966309 
	C782.561340,1044.905518 785.089783,1046.351440 787.417969,1047.603027 
	C788.725525,1048.305908 789.921326,1049.216797 791.167480,1050.034058 
	C791.017944,1050.476318 790.868347,1050.918579 790.718811,1051.360840 
	C788.513794,1051.360840 786.308716,1051.360840 784.103699,1051.360840 
	C784.030640,1051.867798 783.957642,1052.374878 783.884583,1052.881836 
	C786.011414,1053.182861 788.332092,1054.121582 790.195068,1053.555176 
	C791.386169,1053.192993 791.900818,1050.606201 792.332825,1048.364136 
M938.208862,1048.744751 
	C938.040161,1045.860352 937.871460,1042.975952 937.702759,1040.091675 
	C936.934875,1039.488647 936.167053,1038.885742 935.399231,1038.282715 
	C935.014160,1039.591553 933.990112,1041.123657 934.355591,1042.170410 
	C935.872437,1046.514893 932.417236,1047.459839 929.261169,1049.139648 
	C932.402893,1050.679077 934.948975,1051.926514 937.673401,1053.261475 
	C937.907715,1052.434570 938.342346,1050.900269 938.208862,1048.744751 
M741.517090,1043.946655 
	C739.996155,1045.573242 737.790161,1046.990601 737.205994,1048.903442 
	C736.843872,1050.089355 738.599426,1052.648438 740.038940,1053.445557 
	C741.374573,1054.185303 743.552551,1053.403809 745.359680,1053.292114 
	C745.265259,1053.058105 745.170837,1052.824097 745.076416,1052.590210 
	C743.066895,1051.864502 741.057434,1051.138916 739.047913,1050.413330 
	C739.204712,1050.015015 739.361511,1049.616821 739.518250,1049.218506 
	C741.634827,1049.100830 743.751404,1048.983032 745.867981,1048.865234 
	C746.110352,1048.487427 746.352722,1048.109619 746.595154,1047.731934 
	C745.172424,1046.478149 743.749634,1045.224487 741.517090,1043.946655 
M864.816162,1045.910034 
	C865.903320,1048.557129 866.990479,1051.204102 868.175049,1054.088501 
	C870.409607,1051.906128 866.948914,1046.753174 872.426453,1045.803345 
	C872.801208,1048.756470 873.137451,1051.405884 873.473694,1054.055420 
	C873.933289,1054.009277 874.392883,1053.963135 874.852478,1053.916992 
	C874.852478,1051.525391 875.244568,1049.053833 874.775574,1046.758057 
	C873.590271,1040.955322 868.389954,1046.925537 865.976196,1044.089355 
	C865.898987,1043.998657 864.390564,1045.125977 863.549316,1045.685547 
	C863.697815,1045.760498 863.846313,1045.835327 864.816162,1045.910034 
M806.384827,1054.015991 
	C807.903687,1052.179810 810.102783,1050.523804 810.656738,1048.432129 
	C810.937195,1047.373047 808.193909,1044.274902 806.909790,1044.327881 
	C804.940857,1044.409180 802.021667,1046.004150 801.348267,1047.691772 
	C800.052673,1050.939209 801.995483,1053.345825 806.384827,1054.015991 
M849.161377,1052.274780 
	C851.245911,1052.621704 854.091431,1053.949829 855.225098,1053.070679 
	C856.686829,1051.937012 857.857727,1048.531860 857.159302,1047.037476 
	C856.447937,1045.515503 853.028320,1044.023560 851.305420,1044.473633 
	C847.973328,1045.344360 847.046021,1048.287598 849.161377,1052.274780 
M115.917908,1042.610718 
	C115.917908,1046.708252 115.917908,1050.805786 115.917908,1054.903442 
	C116.371346,1054.929688 116.824791,1054.955933 117.278229,1054.982178 
	C120.165810,1048.857056 113.297958,1039.242432 123.792389,1035.604126 
	C121.335953,1035.751831 118.879524,1035.899414 115.918144,1036.077393 
	C115.918144,1037.431763 115.918144,1039.542603 115.917908,1042.610718 
M825.948303,1049.290039 
	C827.327209,1050.952881 828.706177,1052.615723 830.085083,1054.278564 
	C830.383118,1054.012329 830.681152,1053.745972 830.979187,1053.479614 
	C829.978760,1051.782471 828.978333,1050.085449 827.956543,1048.351929 
	C828.750427,1046.984741 829.502258,1045.690063 830.254089,1044.395386 
	C830.048523,1044.231689 829.842896,1044.067871 829.637268,1043.904053 
	C828.251343,1044.983643 826.865417,1046.063110 825.241211,1047.328125 
	C824.977539,1044.491211 824.767822,1042.234863 824.558105,1039.978516 
	C824.216431,1040.035889 823.874756,1040.093262 823.533081,1040.150513 
	C823.533081,1044.745972 823.533081,1049.341431 823.533081,1053.936890 
	C823.868835,1053.956055 824.204651,1053.975342 824.540405,1053.994629 
	C824.752258,1052.457275 824.964111,1050.920044 825.948303,1049.290039 
M768.056946,1053.677979 
	C772.986938,1054.005493 776.257935,1051.057251 774.573059,1047.496948 
	C773.857361,1045.984741 771.811584,1044.316040 770.264221,1044.205566 
	C768.730957,1044.096069 765.880310,1045.689819 765.716736,1046.837402 
	C765.428467,1048.859375 766.744629,1051.110229 768.056946,1053.677979 
M219.037094,1031.691284 
	C217.396912,1030.592773 215.756714,1029.494141 212.921799,1027.595459 
	C213.731766,1031.946411 214.264359,1034.807373 214.796951,1037.668213 
	C217.144516,1037.167725 219.492096,1036.667358 222.465561,1036.033447 
	C220.754791,1034.190674 219.922531,1033.294067 219.037094,1031.691284 
M842.548767,1054.045166 
	C843.975220,1053.603394 845.401672,1053.161621 846.143982,1052.931763 
	C843.997803,1051.692749 840.622009,1050.825684 840.365723,1049.398560 
	C839.502625,1044.592163 844.035095,1046.543945 846.892395,1045.739258 
	C843.667480,1043.034668 840.901062,1043.270020 838.963196,1046.144409 
	C836.601135,1049.647827 838.047852,1052.353149 842.548767,1054.045166 
M816.779358,1044.057129 
	C813.031555,1045.707520 811.564331,1048.494995 814.029236,1051.944824 
	C816.168274,1054.938477 819.096863,1054.849487 821.010803,1053.135986 
	C818.986450,1051.744141 817.040649,1050.406372 815.094849,1049.068604 
	C816.947327,1047.654907 818.799744,1046.241211 820.757812,1044.746948 
	C820.172852,1044.602539 818.862366,1044.279175 816.779358,1044.057129 
M754.848633,1044.140747 
	C751.672241,1043.463745 748.854675,1044.412109 748.305237,1047.610352 
	C748.002747,1049.370972 749.271912,1052.183105 750.748962,1053.238037 
	C752.100708,1054.203491 754.685181,1053.442871 757.205139,1053.442871 
	C754.082764,1051.717285 750.700012,1050.919922 750.395874,1049.474731 
	C749.550781,1045.458496 752.832886,1045.793335 755.572876,1046.175171 
	C755.555359,1045.618408 755.537781,1045.061768 754.848633,1044.140747 
M948.794312,1053.574341 
	C947.895386,1049.141724 946.996399,1044.709229 945.958862,1039.593140 
	C944.611755,1040.845581 943.330078,1042.037231 941.780884,1043.477539 
	C945.699890,1044.251465 946.115784,1049.406006 942.937866,1053.965820 
	C944.803345,1053.965820 946.428467,1053.965820 948.794312,1053.574341 
M760.015625,1053.062378 
	C760.984375,1053.384766 761.953125,1053.707153 762.139771,1053.769287 
	C761.835022,1050.871582 761.540405,1048.070679 761.245850,1045.269897 
	C761.244690,1045.670654 761.243591,1046.071411 761.242432,1046.472168 
	C760.935059,1045.035767 760.627625,1043.599365 760.320190,1042.162842 
	C759.720703,1042.352417 759.121277,1042.541992 758.521790,1042.731445 
	C758.840942,1045.989380 759.160156,1049.247192 760.015625,1053.062378 
M799.154968,1053.469116 
	C798.427856,1051.450806 796.514771,1048.736938 797.209351,1047.552246 
	C798.890259,1044.685425 797.766357,1043.755005 795.649597,1042.490601 
	C793.463989,1047.361084 794.756958,1052.270264 799.154968,1053.469116 
M778.960876,1050.696167 
	C779.847168,1048.634644 780.733521,1046.572998 781.638306,1044.468506 
	C780.436218,1044.468506 778.774536,1044.468506 777.445068,1044.468506 
	C777.445068,1047.756836 777.445068,1050.852783 777.445068,1053.948853 
	C777.744202,1053.965942 778.043335,1053.983032 778.342529,1054.000122 
	C778.547241,1053.183228 778.751953,1052.366455 778.960876,1050.696167 
M219.611984,1027.519287 
	C219.611984,1027.519287 219.474518,1027.607422 219.611984,1027.519287 
z"/>
<path fill="#FEFFFE" opacity="1.000000" stroke="none" 
	d="
M733.353027,372.703949 
	C708.096130,355.000610 692.080872,331.294098 685.440063,301.675781 
	C678.711060,271.664398 694.849548,249.338654 727.899414,243.382339 
	C725.235962,242.303391 723.705200,241.656860 722.155518,241.059586 
	C704.689819,234.327744 690.405151,224.083206 684.105652,205.517944 
	C678.796143,189.870239 681.275879,174.493378 687.259827,159.653778 
	C697.893433,133.283371 716.067444,112.674667 738.235474,95.452034 
	C745.592224,89.736435 754.505737,88.788422 762.030884,94.473572 
	C789.352051,115.114433 811.333435,140.030029 819.025513,174.515839 
	C825.518982,203.627838 812.833862,226.642944 784.864014,238.985931 
	C781.728699,240.369522 778.505066,241.552902 774.579834,243.126877 
	C779.054321,244.379288 782.841309,245.211365 786.470093,246.491806 
	C810.974060,255.138443 822.218384,274.206116 816.784424,300.346802 
	C810.525879,330.454315 793.988586,354.282654 769.253479,372.457916 
	C768.452332,373.046631 767.605591,373.745544 766.678955,373.964417 
	C758.341309,375.933380 756.744873,381.516327 757.913574,389.130463 
	C758.540100,393.211884 758.169250,397.445404 758.261353,401.610046 
	C758.410217,408.348633 756.352478,410.938873 750.870728,410.891418 
	C745.418518,410.844238 743.604492,408.420502 743.750793,401.410156 
	C743.886353,394.913116 743.797729,388.402008 744.224060,381.924469 
	C744.438171,378.670349 743.370422,377.164215 740.355103,376.215393 
	C738.009338,375.477264 735.887634,374.027130 733.353027,372.703949 
z"/>
<path fill="#1CA838" opacity="1.000000" stroke="none" 
	d="
M251.025665,91.266350 
	C255.227783,92.570435 260.249817,92.819542 263.501404,95.346642 
	C287.978851,114.370155 307.980164,137.029480 317.358673,167.306946 
	C323.503815,187.145889 322.300415,206.186600 308.016479,222.715683 
	C300.083740,231.895340 289.740936,237.499985 278.511047,241.633423 
	C277.483551,242.011597 276.472382,242.434036 275.032013,243.002213 
	C280.487366,244.756607 285.556427,245.998596 290.315094,247.984421 
	C310.784058,256.526306 321.159790,274.093445 317.598480,295.943359 
	C312.421661,327.705200 295.665161,352.624451 270.158356,371.796143 
	C266.765442,374.346344 262.523499,375.766968 258.325073,377.363495 
	C257.333405,362.448975 256.553894,347.886078 256.080322,333.313293 
	C255.298920,309.267883 254.704910,285.216309 254.052078,261.166779 
	C253.691833,247.895721 253.310562,234.624756 253.049088,221.351578 
	C252.633652,200.262421 252.332001,179.171051 251.908676,158.082077 
	C251.873779,156.344208 251.277527,154.617599 250.915314,152.424805 
	C250.934219,131.731354 250.979950,111.498848 251.025665,91.266350 
z"/>
<path fill="#81C123" opacity="1.000000" stroke="none" 
	d="
M250.632553,91.192627 
	C250.979950,111.498848 250.934219,131.731354 250.916916,152.447662 
	C250.945328,152.931473 250.928925,152.970184 250.682404,153.275162 
	C250.401047,155.999207 250.366211,158.418259 250.270309,161.312073 
	C249.860062,173.597488 249.499039,185.407852 249.164139,197.218948 
	C248.489624,221.007111 247.804672,244.795013 247.169617,268.584259 
	C246.414474,296.871552 245.738419,325.161011 244.959244,353.447632 
	C244.739471,361.425476 244.278366,369.396698 243.927933,377.370941 
	C239.756149,375.386627 235.154129,373.993744 231.481995,371.322571 
	C206.610535,353.230682 190.288025,329.226379 185.084610,298.808380 
	C180.145325,269.934357 195.403656,249.509171 224.305664,244.048828 
	C225.069534,243.904495 225.835571,243.771576 227.932678,243.392578 
	C223.799957,241.730164 220.787598,240.612183 217.850983,239.321808 
	C200.019699,231.486633 186.695099,219.534668 182.481186,199.636414 
	C179.627533,186.161362 181.924515,173.087830 186.885254,160.500687 
	C197.317474,134.030533 215.441132,113.421349 237.460846,96.072456 
	C240.891632,93.369408 245.939392,92.718666 250.632553,91.192627 
z"/>
<path fill="#1C7258" opacity="1.000000" stroke="none" 
	d="
M243.997040,377.806702 
	C244.278366,369.396698 244.739471,361.425476 244.959244,353.447632 
	C245.738419,325.161011 246.414474,296.871552 247.169617,268.584259 
	C247.804672,244.795013 248.489624,221.007111 249.164139,197.218948 
	C249.499039,185.407852 249.860062,173.597488 250.486450,161.014954 
	C250.818726,157.818802 250.873825,155.394501 250.928925,152.970184 
	C250.928925,152.970184 250.945328,152.931473 250.943726,152.908630 
	C251.277527,154.617599 251.873779,156.344208 251.908676,158.082077 
	C252.332001,179.171051 252.633652,200.262421 253.049088,221.351578 
	C253.310562,234.624756 253.691833,247.895721 254.052078,261.166779 
	C254.704910,285.216309 255.298920,309.267883 256.080322,333.313293 
	C256.553894,347.886078 257.333405,362.448975 257.980103,377.458710 
	C258.097595,386.182648 258.188171,394.464539 258.331024,402.745544 
	C258.428833,408.416718 256.208099,410.890442 250.904541,410.892059 
	C245.645157,410.893707 243.538116,408.462585 243.649689,402.593994 
	C243.804001,394.477142 243.928741,386.359680 243.997040,377.806702 
z"/>
<path fill="#121324" opacity="1.000000" stroke="none" 
	d="
M500.772156,500.970428 
	C501.032990,501.139496 501.026398,501.318573 500.922089,501.747864 
	C500.543762,501.937653 500.322388,501.789001 500.083130,501.363403 
	C500.172241,501.109863 500.338501,501.045135 500.772156,500.970428 
z"/>
<path fill="#80C022" opacity="1.000000" stroke="none" 
	d="
M243.957245,877.637573 
	C229.678192,872.755615 219.242508,862.794128 210.028824,851.443298 
	C197.256409,835.708252 187.903915,818.286438 184.801804,797.918335 
	C180.057800,766.769653 199.367126,748.684082 225.250259,743.955261 
	C225.809448,743.853027 226.373077,743.775085 228.298691,743.468933 
	C224.474426,741.979309 221.873734,741.038635 219.329742,739.963745 
	C200.727478,732.103271 186.592285,720.007629 182.389725,699.252625 
	C179.078552,682.899780 183.131729,667.480591 190.168671,652.815613 
	C201.193909,629.838989 217.736115,611.290466 237.777756,595.866394 
	C241.122864,593.291992 245.969894,592.669250 250.541260,591.653076 
	C250.952042,612.403992 250.944504,632.646484 250.912384,653.325684 
	C250.302063,668.374634 249.625748,682.983948 249.151657,697.599792 
	C248.429230,719.871643 247.828995,742.147583 247.209549,764.422668 
	C246.497528,790.026428 245.840515,815.631653 245.120712,841.235168 
	C244.779541,853.370605 244.347900,865.503540 243.957245,877.637573 
z"/>
<path fill="#1BA737" opacity="1.000000" stroke="none" 
	d="
M250.936981,652.888977 
	C250.944504,632.646484 250.952042,612.403992 250.929642,591.712952 
	C255.522003,592.817993 261.015594,593.265015 264.624115,596.106201 
	C286.773254,613.545715 305.060089,634.262146 315.310028,661.009827 
	C321.160706,676.277344 323.301880,691.918152 317.143280,707.738098 
	C310.844421,723.918396 298.174896,733.378296 282.825317,739.935974 
	C280.436554,740.956482 277.984222,741.828247 275.064697,742.961609 
	C280.652863,744.782227 285.706451,746.090210 290.494598,748.047607 
	C310.436218,756.199646 321.137482,774.426819 317.699524,795.654236 
	C312.705322,826.491211 296.692657,850.956970 272.448547,870.179077 
	C268.737335,873.121460 264.093964,874.888184 259.216248,876.971252 
	C258.048950,873.320007 257.233856,869.908264 257.101624,866.470276 
	C256.622589,854.016479 256.371002,841.553894 256.036987,829.094543 
	C255.698471,816.467834 255.389771,803.840332 255.021851,791.214478 
	C254.383041,769.293396 253.588989,747.376160 253.082642,725.452148 
	C252.567978,703.166931 252.344772,680.875061 251.918442,658.587524 
	C251.881973,656.682434 251.277542,654.788208 250.936981,652.888977 
z"/>
<path fill="#1C7157" opacity="1.000000" stroke="none" 
	d="
M250.912384,653.325684 
	C251.277542,654.788208 251.881973,656.682434 251.918442,658.587524 
	C252.344772,680.875061 252.567978,703.166931 253.082642,725.452148 
	C253.588989,747.376160 254.383041,769.293396 255.021851,791.214478 
	C255.389771,803.840332 255.698471,816.467834 256.036987,829.094543 
	C256.371002,841.553894 256.622589,854.016479 257.101624,866.470276 
	C257.233856,869.908264 258.048950,873.320007 258.855682,877.056763 
	C258.752167,879.060791 258.007263,880.749146 257.993805,882.443359 
	C257.937317,889.562134 258.156738,896.682617 258.161774,903.802551 
	C258.165222,908.645325 255.574661,911.043030 250.736862,910.924377 
	C246.071136,910.809875 243.827682,908.571899 243.839767,903.800537 
	C243.861176,895.356140 243.979645,886.912048 244.007385,878.052734 
	C244.347900,865.503540 244.779541,853.370605 245.120712,841.235168 
	C245.840515,815.631653 246.497528,790.026428 247.209549,764.422668 
	C247.828995,742.147583 248.429230,719.871643 249.151657,697.599792 
	C249.625748,682.983948 250.302063,668.374634 250.912384,653.325684 
z"/>
<path fill="#010101" opacity="1.000000" stroke="none" 
	d="
M807.507935,644.508301 
	C814.078308,656.425903 819.001221,668.514343 820.271667,681.871033 
	C822.380249,704.039001 814.172485,721.306519 795.417053,733.205078 
	C789.166382,737.170471 782.193848,739.998108 775.287292,743.478943 
	C777.576904,744.003723 779.994202,744.459229 782.356201,745.114075 
	C810.072510,752.798096 823.016968,774.114990 816.468018,802.405151 
	C810.118652,829.833557 795.083862,851.999146 773.273071,869.542114 
	C768.800903,873.139160 763.394836,875.574951 758.332336,878.597839 
	C758.332336,886.298279 758.285706,894.428589 758.348083,902.558105 
	C758.392334,908.321777 756.200012,910.890076 750.998840,910.900818 
	C745.756409,910.911682 743.532288,908.385010 743.666443,902.610291 
	C743.832764,895.446899 744.105591,888.281799 744.028442,881.120667 
	C744.013367,879.723877 742.937805,877.556335 741.792786,877.075928 
	C731.417175,872.723511 722.928955,865.843506 715.473572,857.659302 
	C699.825195,840.481079 688.331360,821.103638 684.807251,797.703430 
	C680.178894,766.970886 698.901062,749.024414 724.955017,743.979675 
	C725.545410,743.865295 726.147400,743.810425 728.310730,743.510864 
	C724.263062,741.927734 721.544922,740.958191 718.901611,739.815735 
	C700.557556,731.887268 686.605225,719.867798 682.418823,699.304504 
	C679.269714,683.836487 682.766357,669.140625 689.131653,655.110046 
	C700.040100,631.065552 717.129456,611.908936 737.700317,595.773193 
	C746.242737,589.072571 756.333618,589.383789 764.892456,596.176208 
	C781.867737,609.647949 796.411621,625.327942 807.507935,644.508301 
z"/>
<path fill="#EBEBED" opacity="1.000000" stroke="none" 
	d="
M136.468445,1051.704102 
	C138.253036,1050.213013 139.649292,1048.809082 141.045563,1047.405029 
	C139.528320,1046.108398 138.157700,1044.552490 136.452438,1043.588501 
	C134.757538,1042.630493 132.287720,1042.747070 130.951019,1041.524780 
	C129.189301,1039.913818 127.080040,1037.391602 127.196404,1035.381348 
	C127.312843,1033.369507 129.764679,1030.169556 131.586609,1029.867798 
	C134.906372,1029.317871 138.554504,1030.361084 141.975098,1031.138306 
	C142.656525,1031.292969 142.932114,1033.234009 143.599350,1034.845215 
	C140.088715,1033.747559 137.494919,1032.502441 134.815964,1032.279297 
	C133.444168,1032.164795 131.919998,1033.878540 130.464706,1034.766113 
	C131.525620,1036.030640 132.359894,1037.686768 133.702835,1038.464233 
	C135.522705,1039.517578 138.147903,1039.403320 139.673920,1040.686401 
	C141.762009,1042.442139 144.620667,1045.168213 144.441193,1047.244263 
	C144.228989,1049.698975 141.508148,1053.281128 139.200928,1053.912598 
	C135.191696,1055.010010 130.665207,1054.217651 126.307610,1053.443237 
	C128.990891,1048.488159 133.023682,1053.491821 136.468445,1051.704102 
z"/>
<path fill="#E8E8EA" opacity="1.000000" stroke="none" 
	d="
M195.018250,1048.864136 
	C195.020721,1042.073120 195.020721,1035.762207 195.020721,1029.463379 
	C198.657486,1029.365723 198.663162,1029.365723 198.683624,1033.533325 
	C198.695557,1035.961060 198.685806,1038.388672 198.685806,1041.162109 
	C202.473862,1038.560547 205.742661,1036.315430 209.011459,1034.070435 
	C209.415390,1034.593018 209.819305,1035.115479 210.223236,1035.638062 
	C207.586304,1037.833252 204.949371,1040.028442 202.140244,1042.366943 
	C205.399658,1046.944580 208.063583,1050.685791 210.970093,1054.767700 
	C203.508377,1056.204468 204.164963,1047.939331 199.749863,1046.237427 
	C196.299072,1048.057251 201.991531,1054.518433 195.015778,1055.143677 
	C195.015778,1052.952881 195.015778,1051.148560 195.018250,1048.864136 
z"/>
<path fill="#EFEFF1" opacity="1.000000" stroke="none" 
	d="
M173.143570,1037.865723 
	C173.969482,1039.510986 174.823151,1040.806641 175.083374,1042.212158 
	C175.946762,1046.875977 175.454880,1051.288940 170.872910,1053.903687 
	C167.203125,1055.997803 163.493408,1055.521606 160.336304,1052.643677 
	C157.310410,1049.885498 156.598495,1043.759399 158.644684,1039.679810 
	C161.337280,1034.311279 167.120087,1033.453857 173.143570,1037.865723 
M165.690170,1051.883423 
	C169.987366,1052.077515 172.096100,1049.397217 171.749680,1045.743896 
	C171.505676,1043.170532 169.768005,1040.420776 167.920029,1038.496216 
	C167.302322,1037.852905 163.500092,1038.932373 162.510986,1040.246216 
	C160.135712,1043.401245 160.287338,1047.102173 162.882721,1050.354004 
	C163.372345,1050.967407 164.236435,1051.281982 165.690170,1051.883423 
z"/>
<path fill="#E0E0E4" opacity="1.000000" stroke="none" 
	d="
M34.878048,1040.240234 
	C33.548664,1036.437134 32.313610,1033.014404 31.068878,1029.564819 
	C33.581402,1029.903198 33.575989,1029.905151 37.026543,1039.733398 
	C38.448990,1043.785156 39.900513,1047.826660 41.652695,1052.755737 
	C44.760151,1044.264893 47.596230,1036.515503 50.432304,1028.766235 
	C50.954552,1028.927612 51.476799,1029.089111 51.999046,1029.250488 
	C51.520760,1030.775879 51.085007,1032.316284 50.556664,1033.824097 
	C48.476898,1039.759888 46.451225,1045.717407 44.205746,1051.590332 
	C43.704540,1052.901245 42.393215,1053.902466 41.454849,1055.046265 
	C40.625427,1053.978027 39.506165,1053.026489 39.020729,1051.819946 
	C37.540142,1048.139526 36.303768,1044.361084 34.878048,1040.240234 
z"/>
<path fill="#EFEFF1" opacity="1.000000" stroke="none" 
	d="
M184.615204,1054.814453 
	C178.188492,1051.618896 176.088715,1046.073364 178.727371,1040.210449 
	C180.961777,1035.245605 185.577194,1033.839844 192.200500,1037.363159 
	C191.125000,1037.702881 190.041107,1038.018311 188.975769,1038.387207 
	C186.776138,1039.148926 183.312698,1039.385864 182.680130,1040.842285 
	C181.635941,1043.246582 181.658539,1046.784424 182.721603,1049.184448 
	C183.367752,1050.643188 186.804977,1050.882812 189.002228,1051.629272 
	C189.907898,1051.937012 190.849777,1052.138184 191.775192,1052.387939 
	C191.013321,1053.199829 190.382141,1054.441650 189.458832,1054.722168 
	C188.083649,1055.140137 186.502304,1054.879272 184.615204,1054.814453 
z"/>
<path fill="#E0E0E4" opacity="1.000000" stroke="none" 
	d="
M51.710865,1049.854614 
	C51.336384,1047.362549 50.810631,1045.209106 50.998318,1043.119873 
	C51.462288,1037.955444 55.431183,1034.469482 59.851768,1034.985718 
	C64.248520,1035.499390 66.406616,1039.154907 66.095123,1045.937012 
	C61.850578,1045.937012 57.575466,1045.937012 53.267807,1045.937012 
	C53.997013,1052.775879 55.744843,1053.614746 66.027557,1052.391846 
	C62.012466,1056.965698 56.084064,1056.056396 51.710865,1049.854614 
M54.578217,1039.156494 
	C53.969501,1040.605835 53.360786,1042.055298 52.569916,1043.938354 
	C56.788010,1043.938354 60.331409,1043.938354 63.877663,1043.938354 
	C63.802155,1037.180908 60.614960,1035.276855 54.578217,1039.156494 
z"/>
<path fill="#E0E0E4" opacity="1.000000" stroke="none" 
	d="
M110.398254,1037.630005 
	C115.106834,1045.568970 112.587120,1053.988159 105.508446,1054.973389 
	C101.304787,1055.558594 97.996323,1054.041992 96.044243,1050.169189 
	C93.848145,1045.812378 94.861649,1039.633057 98.367699,1036.941528 
	C102.300407,1033.922363 106.311546,1034.166016 110.398254,1037.630005 
M109.199409,1039.373535 
	C104.571648,1035.713623 100.169083,1036.142822 98.066887,1040.606567 
	C96.289017,1044.381714 96.262383,1048.526489 99.462814,1051.189941 
	C101.193024,1052.629883 105.002922,1053.132568 107.098969,1052.238892 
	C111.184402,1050.497070 111.396927,1046.331299 110.614769,1042.321533 
	C110.458420,1041.520020 110.009697,1040.775513 109.199409,1039.373535 
z"/>
<path fill="#E0E0E4" opacity="1.000000" stroke="none" 
	d="
M959.407227,1045.519287 
	C959.270996,1046.647583 959.486023,1047.458252 959.337585,1048.195801 
	C958.990112,1049.922363 958.972778,1052.450195 957.887634,1053.104614 
	C956.573425,1053.897217 953.909607,1053.677246 952.565186,1052.786011 
	C951.585388,1052.136353 951.645813,1049.700806 951.532043,1048.041626 
	C951.462463,1047.026733 952.256104,1045.928101 952.112854,1044.947510 
	C951.701111,1042.128906 952.591248,1040.135986 955.514526,1040.061890 
	C958.737488,1039.980225 960.526245,1041.635254 959.407227,1045.519287 
z"/>
<path fill="#FEFFFE" opacity="1.000000" stroke="none" 
	d="
M147.813583,1030.313965 
	C150.950958,1029.157715 150.950958,1029.157715 151.302979,1034.776611 
	C151.992661,1034.847290 152.757248,1034.889526 153.508514,1035.012939 
	C154.264618,1035.137085 155.007462,1035.341919 156.065918,1036.677734 
	C154.562469,1037.286743 153.059021,1037.895752 151.404922,1038.565674 
	C150.144974,1049.280518 150.394409,1050.096924 156.764801,1052.955078 
	C155.058273,1053.759399 153.366623,1054.992798 152.975967,1054.666870 
	C151.088638,1053.092285 148.551208,1051.309204 148.107498,1049.206787 
	C147.298813,1045.375366 147.796143,1041.266357 147.766953,1037.272949 
	C147.751129,1035.109131 147.773163,1032.945190 147.813583,1030.313965 
z"/>
<path fill="#D7D8DD" opacity="1.000000" stroke="none" 
	d="
M78.935875,1055.073975 
	C73.392960,1055.137085 70.596794,1052.348877 69.515709,1047.578979 
	C68.516258,1043.169312 69.504601,1039.225464 73.210007,1036.518433 
	C76.494171,1034.119141 80.040298,1034.462891 83.890999,1036.280151 
	C79.972008,1037.265259 76.370300,1037.526489 73.548019,1039.146118 
	C72.092911,1039.981079 71.479301,1043.220703 71.434921,1045.393311 
	C71.318367,1051.098633 73.773331,1052.496338 84.009537,1053.863037 
	C82.454750,1054.266479 80.899963,1054.669800 78.935875,1055.073975 
z"/>
<path fill="#E0E0E4" opacity="1.000000" stroke="none" 
	d="
M909.050781,1048.053467 
	C908.397949,1045.795288 907.671997,1043.631348 908.043823,1041.676392 
	C908.190369,1040.905396 911.459167,1039.732300 912.131714,1040.254761 
	C913.780273,1041.534912 915.525085,1043.570679 915.837341,1045.525269 
	C916.731995,1051.124146 913.000610,1054.538330 907.775269,1053.102295 
	C909.757446,1052.004150 911.591248,1050.988159 914.687256,1049.272827 
	C911.827576,1048.707764 910.622437,1048.469604 909.050781,1048.053467 
z"/>
<path fill="#D7D8DD" opacity="1.000000" stroke="none" 
	d="
M87.166382,1035.188965 
	C87.180870,1032.840942 87.180870,1030.964478 87.180870,1029.087891 
	C87.765617,1029.036377 88.350357,1028.984863 88.935104,1028.933228 
	C89.180267,1030.617554 89.425430,1032.301880 89.746437,1034.507202 
	C90.673370,1034.783936 91.891129,1035.147461 93.499817,1035.627686 
	C88.013603,1038.521484 87.868225,1047.814209 92.692940,1054.432373 
	C88.700569,1053.835693 87.519722,1052.656128 87.257111,1048.080933 
	C87.020103,1043.952393 87.171684,1039.801392 87.166382,1035.188965 
z"/>
<path fill="#E0E0E4" opacity="1.000000" stroke="none" 
	d="
M970.067139,1045.705688 
	C971.083740,1047.783081 972.445801,1049.875366 972.091003,1051.618164 
	C971.874634,1052.680786 968.609558,1054.210938 967.436035,1053.738159 
	C965.631409,1053.011230 963.603882,1050.946167 963.156921,1049.090820 
	C961.757629,1043.281738 966.216125,1039.241943 972.079651,1040.869385 
	C969.820801,1041.970093 967.704468,1043.001221 965.588196,1044.032471 
	C965.742493,1044.444824 965.896851,1044.857056 966.051147,1045.269287 
	C967.263611,1045.370605 968.476135,1045.471924 970.067139,1045.705688 
M966.305054,1051.353516 
	C967.719116,1051.166016 969.150940,1051.044800 970.516479,1050.677124 
	C970.638184,1050.644287 970.635498,1048.526001 970.155212,1048.222046 
	C969.179016,1047.604370 967.579102,1047.037964 966.726807,1047.454468 
	C966.044556,1047.787842 966.087280,1049.604980 966.305054,1051.353516 
z"/>
<path fill="#E0E0E4" opacity="1.000000" stroke="none" 
	d="
M923.784912,1053.992065 
	C921.641113,1052.596558 918.728394,1051.378174 918.417725,1049.682983 
	C917.929626,1047.019287 918.561829,1043.683350 919.892761,1041.282227 
	C921.275574,1038.787354 925.401245,1039.658447 926.986084,1042.287964 
	C929.268005,1046.073730 928.028564,1051.232300 923.784912,1053.992065 
M920.052612,1045.761353 
	C921.027039,1047.853882 922.001526,1049.946289 922.976013,1052.038818 
	C923.941345,1050.911377 925.744629,1049.746582 925.696411,1048.664062 
	C925.598083,1046.453003 924.503601,1044.286255 923.819397,1042.101196 
	C922.585999,1043.048584 921.352661,1043.995850 920.052612,1045.761353 
z"/>
<path fill="#D7D8DD" opacity="1.000000" stroke="none" 
	d="
M735.348083,1041.718506 
	C733.770203,1046.172363 732.319092,1050.272705 730.867920,1054.373047 
	C730.317810,1054.348389 729.767700,1054.323608 729.217590,1054.298828 
	C727.522827,1049.681519 725.828064,1045.064087 724.133301,1040.446655 
	C724.698425,1040.197632 725.263611,1039.948730 725.828735,1039.699707 
	C727.072632,1042.932129 728.316467,1046.164551 730.069458,1050.720093 
	C731.284668,1047.205566 732.012329,1044.645630 733.089783,1042.242554 
	C733.447144,1041.445679 734.703979,1041.052002 735.549683,1040.474121 
	C735.579407,1040.613770 735.643738,1040.756836 735.629822,1040.891968 
	C735.613220,1041.053223 735.529480,1041.207642 735.348083,1041.718506 
z"/>
<path fill="#D7D8DD" opacity="1.000000" stroke="none" 
	d="
M891.372498,1048.517212 
	C889.987854,1047.635864 888.857361,1047.051025 887.523193,1046.360718 
	C888.427673,1044.989502 889.226379,1043.778687 890.174988,1042.340576 
	C888.536743,1041.937988 887.106689,1041.586548 885.676636,1041.235229 
	C885.703430,1040.952881 885.730164,1040.670532 885.756958,1040.388184 
	C888.304688,1040.388184 890.852417,1040.388184 893.856445,1040.388184 
	C892.761292,1042.116455 891.823120,1043.597046 890.765869,1045.265503 
	C893.368225,1047.049194 895.531311,1049.315063 892.878784,1052.385864 
	C890.518372,1055.118774 887.774536,1054.371460 884.793518,1052.253540 
	C886.974182,1050.162231 892.091431,1054.800659 891.372498,1048.517212 
z"/>
<path fill="#D7D8DD" opacity="1.000000" stroke="none" 
	d="
M899.376587,1039.930176 
	C901.245300,1039.931274 902.721924,1039.931274 905.044128,1039.931274 
	C903.780457,1042.040161 902.843994,1043.602905 901.815369,1045.319580 
	C904.452637,1047.104492 906.531616,1049.410400 903.828979,1052.445435 
	C901.467712,1055.097168 898.724121,1054.454956 895.971985,1052.299561 
	C898.510681,1051.510620 900.645081,1050.847412 902.779480,1050.184082 
	C901.615906,1048.852539 900.452393,1047.521118 898.986572,1045.843750 
	C899.396912,1045.157104 900.129272,1043.931763 901.082764,1042.336304 
	C899.549988,1041.993042 898.137207,1041.676758 896.724426,1041.360474 
	C896.702515,1041.096680 896.680664,1040.832886 896.658752,1040.569092 
	C897.433960,1040.355713 898.209229,1040.142456 899.376587,1039.930176 
z"/>
<path fill="#D7D8DD" opacity="1.000000" stroke="none" 
	d="
M792.525757,1048.690430 
	C791.900818,1050.606201 791.386169,1053.192993 790.195068,1053.555176 
	C788.332092,1054.121582 786.011414,1053.182861 783.884583,1052.881836 
	C783.957642,1052.374878 784.030640,1051.867798 784.103699,1051.360840 
	C786.308716,1051.360840 788.513794,1051.360840 790.718811,1051.360840 
	C790.868347,1050.918579 791.017944,1050.476318 791.167480,1050.034058 
	C789.921326,1049.216797 788.725525,1048.305908 787.417969,1047.603027 
	C785.089783,1046.351440 782.561340,1044.905518 784.622070,1041.966309 
	C786.639587,1039.088867 789.467468,1039.152710 792.777832,1041.911255 
	C790.135254,1042.174561 788.145813,1042.372803 786.156372,1042.571045 
	C786.045959,1042.985352 785.935547,1043.399780 785.825134,1043.814087 
	C787.994385,1045.330811 790.163635,1046.847412 792.525757,1048.690430 
z"/>
<path fill="#E8E8EA" opacity="1.000000" stroke="none" 
	d="
M938.492920,1049.055420 
	C938.342346,1050.900269 937.907715,1052.434570 937.673401,1053.261475 
	C934.948975,1051.926514 932.402893,1050.679077 929.261169,1049.139648 
	C932.417236,1047.459839 935.872437,1046.514893 934.355591,1042.170410 
	C933.990112,1041.123657 935.014160,1039.591553 935.399231,1038.282715 
	C936.167053,1038.885742 936.934875,1039.488647 937.702759,1040.091675 
	C937.871460,1042.975952 938.040161,1045.860352 938.492920,1049.055420 
z"/>
<path fill="#D7D8DD" opacity="1.000000" stroke="none" 
	d="
M741.921997,1043.958740 
	C743.749634,1045.224487 745.172424,1046.478149 746.595154,1047.731934 
	C746.352722,1048.109619 746.110352,1048.487427 745.867981,1048.865234 
	C743.751404,1048.983032 741.634827,1049.100830 739.518250,1049.218506 
	C739.361511,1049.616821 739.204712,1050.015015 739.047913,1050.413330 
	C741.057434,1051.138916 743.066895,1051.864502 745.076416,1052.590210 
	C745.170837,1052.824097 745.265259,1053.058105 745.359680,1053.292114 
	C743.552551,1053.403809 741.374573,1054.185303 740.038940,1053.445557 
	C738.599426,1052.648438 736.843872,1050.089355 737.205994,1048.903442 
	C737.790161,1046.990601 739.996155,1045.573242 741.921997,1043.958740 
z"/>
<path fill="#E0E0E4" opacity="1.000000" stroke="none" 
	d="
M864.405518,1045.910156 
	C863.846313,1045.835327 863.697815,1045.760498 863.549316,1045.685547 
	C864.390564,1045.125977 865.898987,1043.998657 865.976196,1044.089355 
	C868.389954,1046.925537 873.590271,1040.955322 874.775574,1046.758057 
	C875.244568,1049.053833 874.852478,1051.525391 874.852478,1053.916992 
	C874.392883,1053.963135 873.933289,1054.009277 873.473694,1054.055420 
	C873.137451,1051.405884 872.801208,1048.756470 872.426453,1045.803345 
	C866.948914,1046.753174 870.409607,1051.906128 868.175049,1054.088501 
	C866.990479,1051.204102 865.903320,1048.557129 864.405518,1045.910156 
z"/>
<path fill="#E0E0E4" opacity="1.000000" stroke="none" 
	d="
M805.987732,1054.016357 
	C801.995483,1053.345825 800.052673,1050.939209 801.348267,1047.691772 
	C802.021667,1046.004150 804.940857,1044.409180 806.909790,1044.327881 
	C808.193909,1044.274902 810.937195,1047.373047 810.656738,1048.432129 
	C810.102783,1050.523804 807.903687,1052.179810 805.987732,1054.016357 
M805.586487,1052.111938 
	C808.760681,1051.948242 809.619507,1050.020264 808.352295,1047.547119 
	C807.907471,1046.678955 805.216736,1045.914307 804.494324,1046.428101 
	C802.160217,1048.088135 802.457825,1050.211060 805.586487,1052.111938 
z"/>
<path fill="#E0E0E4" opacity="1.000000" stroke="none" 
	d="
M848.944702,1051.939209 
	C847.046021,1048.287598 847.973328,1045.344360 851.305420,1044.473633 
	C853.028320,1044.023560 856.447937,1045.515503 857.159302,1047.037476 
	C857.857727,1048.531860 856.686829,1051.937012 855.225098,1053.070679 
	C854.091431,1053.949829 851.245911,1052.621704 848.944702,1051.939209 
M855.888489,1049.392578 
	C854.866272,1048.216797 853.944702,1046.905762 852.723755,1045.997070 
	C852.517883,1045.843872 850.490479,1047.299561 850.263123,1048.242920 
	C850.021240,1049.246460 851.001831,1051.536621 851.305054,1051.511841 
	C852.805359,1051.388916 854.258179,1050.686035 855.888489,1049.392578 
z"/>
<path fill="#E8E8EA" opacity="1.000000" stroke="none" 
	d="
M115.918030,1042.132080 
	C115.918144,1039.542603 115.918144,1037.431763 115.918144,1036.077393 
	C118.879524,1035.899414 121.335953,1035.751831 123.792389,1035.604126 
	C113.297958,1039.242432 120.165810,1048.857056 117.278229,1054.982178 
	C116.824791,1054.955933 116.371346,1054.929688 115.917908,1054.903442 
	C115.917908,1050.805786 115.917908,1046.708252 115.918030,1042.132080 
z"/>
<path fill="#E8E8EA" opacity="1.000000" stroke="none" 
	d="
M825.562134,1049.336426 
	C824.964111,1050.920044 824.752258,1052.457275 824.540405,1053.994629 
	C824.204651,1053.975342 823.868835,1053.956055 823.533081,1053.936890 
	C823.533081,1049.341431 823.533081,1044.745972 823.533081,1040.150513 
	C823.874756,1040.093262 824.216431,1040.035889 824.558105,1039.978516 
	C824.767822,1042.234863 824.977539,1044.491211 825.241211,1047.328125 
	C826.865417,1046.063110 828.251343,1044.983643 829.637268,1043.904053 
	C829.842896,1044.067871 830.048523,1044.231689 830.254089,1044.395386 
	C829.502258,1045.690063 828.750427,1046.984741 827.956543,1048.351929 
	C828.978333,1050.085449 829.978760,1051.782471 830.979187,1053.479614 
	C830.681152,1053.745972 830.383118,1054.012329 830.085083,1054.278564 
	C828.706177,1052.615723 827.327209,1050.952881 825.562134,1049.336426 
z"/>
<path fill="#E0E0E4" opacity="1.000000" stroke="none" 
	d="
M767.722961,1053.471680 
	C766.744629,1051.110229 765.428467,1048.859375 765.716736,1046.837402 
	C765.880310,1045.689819 768.730957,1044.096069 770.264221,1044.205566 
	C771.811584,1044.316040 773.857361,1045.984741 774.573059,1047.496948 
	C776.257935,1051.057251 772.986938,1054.005493 767.722961,1053.471680 
M767.176025,1047.786011 
	C767.874634,1049.208740 768.435791,1050.740845 769.400513,1051.951538 
	C769.571045,1052.165649 771.913513,1051.301392 772.367798,1050.458252 
	C772.845215,1049.572144 772.513794,1047.189331 772.091797,1047.073120 
	C770.688538,1046.686768 769.085754,1047.024780 767.176025,1047.786011 
z"/>
<path fill="#1A1B2C" opacity="1.000000" stroke="none" 
	d="
M219.063690,1032.044434 
	C219.922531,1033.294067 220.754791,1034.190674 222.465561,1036.033447 
	C219.492096,1036.667358 217.144516,1037.167725 214.796936,1037.668213 
	C214.264359,1034.807373 213.731766,1031.946411 212.921799,1027.595459 
	C215.756714,1029.494141 217.396912,1030.592773 219.063690,1032.044434 
M216.108704,1033.270386 
	C216.302979,1034.036865 216.497269,1034.803223 216.691559,1035.569702 
	C216.938416,1035.487305 217.185272,1035.404785 217.432144,1035.322388 
	C217.093674,1034.497803 216.755203,1033.673218 216.108704,1033.270386 
z"/>
<path fill="#D7D8DD" opacity="1.000000" stroke="none" 
	d="
M842.164551,1054.000366 
	C838.047852,1052.353149 836.601135,1049.647827 838.963196,1046.144409 
	C840.901062,1043.270020 843.667480,1043.034668 846.892395,1045.739258 
	C844.035095,1046.543945 839.502625,1044.592163 840.365723,1049.398560 
	C840.622009,1050.825684 843.997803,1051.692749 846.143982,1052.931763 
	C845.401672,1053.161621 843.975220,1053.603394 842.164551,1054.000366 
z"/>
<path fill="#D7D8DD" opacity="1.000000" stroke="none" 
	d="
M817.165649,1044.006470 
	C818.862366,1044.279175 820.172852,1044.602539 820.757812,1044.746948 
	C818.799744,1046.241211 816.947327,1047.654907 815.094849,1049.068604 
	C817.040649,1050.406372 818.986450,1051.744141 821.010803,1053.135986 
	C819.096863,1054.849487 816.168274,1054.938477 814.029236,1051.944824 
	C811.564331,1048.494995 813.031555,1045.707520 817.165649,1044.006470 
z"/>
<path fill="#D7D8DD" opacity="1.000000" stroke="none" 
	d="
M755.184448,1044.322876 
	C755.537781,1045.061768 755.555359,1045.618408 755.572876,1046.175171 
	C752.832886,1045.793335 749.550781,1045.458496 750.395874,1049.474731 
	C750.700012,1050.919922 754.082764,1051.717285 757.205139,1053.442871 
	C754.685181,1053.442871 752.100708,1054.203491 750.748962,1053.238037 
	C749.271912,1052.183105 748.002747,1049.370972 748.305237,1047.610352 
	C748.854675,1044.412109 751.672241,1043.463745 755.184448,1044.322876 
z"/>
<path fill="#E8E8EA" opacity="1.000000" stroke="none" 
	d="
M948.423950,1053.770020 
	C946.428467,1053.965820 944.803345,1053.965820 942.937866,1053.965820 
	C946.115784,1049.406006 945.699890,1044.251465 941.780884,1043.477539 
	C943.330078,1042.037231 944.611755,1040.845581 945.958862,1039.593140 
	C946.996399,1044.709229 947.895386,1049.141724 948.423950,1053.770020 
z"/>
<path fill="#E0E0E4" opacity="1.000000" stroke="none" 
	d="
M759.747437,1052.783691 
	C759.160156,1049.247192 758.840942,1045.989380 758.521790,1042.731445 
	C759.121277,1042.541992 759.720703,1042.352417 760.320190,1042.162842 
	C760.627625,1043.599365 760.935059,1045.035767 761.242432,1046.472168 
	C761.243591,1046.071411 761.244690,1045.670654 761.245850,1045.269897 
	C761.540405,1048.070679 761.835022,1050.871582 762.139771,1053.769287 
	C761.953125,1053.707153 760.984375,1053.384766 759.747437,1052.783691 
z"/>
<path fill="#EBEBED" opacity="1.000000" stroke="none" 
	d="
M798.830322,1053.714355 
	C794.756958,1052.270264 793.463989,1047.361084 795.649597,1042.490601 
	C797.766357,1043.755005 798.890259,1044.685425 797.209351,1047.552246 
	C796.514771,1048.736938 798.427856,1051.450806 798.830322,1053.714355 
z"/>
<path fill="#E8E8EA" opacity="1.000000" stroke="none" 
	d="
M778.958740,1051.122925 
	C778.751953,1052.366455 778.547241,1053.183228 778.342529,1054.000122 
	C778.043335,1053.983032 777.744202,1053.965942 777.445068,1053.948853 
	C777.445068,1050.852783 777.445068,1047.756836 777.445068,1044.468506 
	C778.774536,1044.468506 780.436218,1044.468506 781.638306,1044.468506 
	C780.733521,1046.572998 779.847168,1048.634644 778.958740,1051.122925 
z"/>
<path fill="#1A1B2C" opacity="1.000000" stroke="none" 
	d="
M219.543243,1027.563354 
	C219.474518,1027.607422 219.611984,1027.519287 219.543243,1027.563354 
z"/>
<path fill="#1CA838" opacity="1.000000" stroke="none" 
	d="
M250.682419,153.275162 
	C250.873825,155.394501 250.818726,157.818802 250.547485,160.540222 
	C250.366211,158.418259 250.401047,155.999207 250.682419,153.275162 
z"/>
<path fill="#1A1B2C" opacity="1.000000" stroke="none" 
	d="
M165.308929,1051.808838 
	C164.236435,1051.281982 163.372345,1050.967407 162.882721,1050.354004 
	C160.287338,1047.102173 160.135712,1043.401245 162.510986,1040.246216 
	C163.500092,1038.932373 167.302322,1037.852905 167.920029,1038.496216 
	C169.768005,1040.420776 171.505676,1043.170532 171.749680,1045.743896 
	C172.096100,1049.397217 169.987366,1052.077515 165.308929,1051.808838 
z"/>
<path fill="#1A1B2C" opacity="1.000000" stroke="none" 
	d="
M54.824883,1038.835938 
	C60.614960,1035.276855 63.802155,1037.180908 63.877663,1043.938354 
	C60.331409,1043.938354 56.788010,1043.938354 52.569916,1043.938354 
	C53.360786,1042.055298 53.969501,1040.605835 54.824883,1038.835938 
z"/>
<path fill="#1A1B2C" opacity="1.000000" stroke="none" 
	d="
M109.447586,1039.689087 
	C110.009697,1040.775513 110.458420,1041.520020 110.614769,1042.321533 
	C111.396927,1046.331299 111.184402,1050.497070 107.098969,1052.238892 
	C105.002922,1053.132568 101.193024,1052.629883 99.462814,1051.189941 
	C96.262383,1048.526489 96.289017,1044.381714 98.066887,1040.606567 
	C100.169083,1036.142822 104.571648,1035.713623 109.447586,1039.689087 
z"/>
<path fill="#1A1B2C" opacity="1.000000" stroke="none" 
	d="
M966.056641,1051.058594 
	C966.087280,1049.604980 966.044556,1047.787842 966.726807,1047.454468 
	C967.579102,1047.037964 969.179016,1047.604370 970.155212,1048.222046 
	C970.635498,1048.526001 970.638184,1050.644287 970.516479,1050.677124 
	C969.150940,1051.044800 967.719116,1051.166016 966.056641,1051.058594 
z"/>
<path fill="#1A1B2C" opacity="1.000000" stroke="none" 
	d="
M920.085938,1045.352295 
	C921.352661,1043.995850 922.585999,1043.048584 923.819458,1042.101318 
	C924.503601,1044.286255 925.598083,1046.453003 925.696411,1048.664062 
	C925.744629,1049.746582 923.941345,1050.911377 922.975952,1052.038818 
	C922.001526,1049.946289 921.027039,1047.853882 920.085938,1045.352295 
z"/>
<path fill="#1A1B2C" opacity="1.000000" stroke="none" 
	d="
M805.187988,1052.027100 
	C802.457825,1050.211060 802.160217,1048.088135 804.494324,1046.428101 
	C805.216736,1045.914307 807.907471,1046.678955 808.352295,1047.547119 
	C809.619507,1050.020264 808.760681,1051.948242 805.187988,1052.027100 
z"/>
<path fill="#1A1B2C" opacity="1.000000" stroke="none" 
	d="
M855.808105,1049.790039 
	C854.258179,1050.686035 852.805359,1051.388916 851.305054,1051.511841 
	C851.001831,1051.536621 850.021240,1049.246460 850.263123,1048.242920 
	C850.490479,1047.299561 852.517883,1045.843872 852.723755,1045.997070 
	C853.944702,1046.905762 854.866272,1048.216797 855.808105,1049.790039 
z"/>
<path fill="#1A1B2C" opacity="1.000000" stroke="none" 
	d="
M767.367798,1047.435547 
	C769.085754,1047.024780 770.688538,1046.686768 772.091797,1047.073120 
	C772.513794,1047.189331 772.845215,1049.572144 772.367798,1050.458252 
	C771.913513,1051.301392 769.571045,1052.165649 769.400513,1051.951538 
	C768.435791,1050.740845 767.874634,1049.208740 767.367798,1047.435547 
z"/>
<path fill="#121324" opacity="1.000000" stroke="none" 
	d="
M216.262726,1033.059570 
	C216.755203,1033.673218 217.093674,1034.497803 217.432144,1035.322388 
	C217.185272,1035.404785 216.938416,1035.487305 216.691559,1035.569702 
	C216.497269,1034.803223 216.302979,1034.036865 216.262726,1033.059570 
z"/>
</svg>