<?xml version="1.0" encoding="UTF-8" standalone="no"?>
<!-- Created with Inkscape (http://www.inkscape.org/) -->

<svg
   width="210mm"
   height="297mm"
   viewBox="0 0 210 297"
   version="1.1"
   id="svg1"
   sodipodi:docname="limeleaf.svg"
   inkscape:version="1.3 (0e150ed, 2023-07-21)"
   xmlns:inkscape="http://www.inkscape.org/namespaces/inkscape"
   xmlns:sodipodi="http://sodipodi.sourceforge.net/DTD/sodipodi-0.dtd"
   xmlns="http://www.w3.org/2000/svg"
   xmlns:svg="http://www.w3.org/2000/svg">
  <sodipodi:namedview
     id="namedview1"
     pagecolor="#ffffff"
     bordercolor="#000000"
     borderopacity="0.25"
     inkscape:showpageshadow="2"
     inkscape:pageopacity="0.0"
     inkscape:pagecheckerboard="0"
     inkscape:deskcolor="#d1d1d1"
     inkscape:document-units="mm"
     inkscape:zoom="0.5946522"
     inkscape:cx="376.69078"
     inkscape:cy="756.74487"
     inkscape:window-width="1392"
     inkscape:window-height="891"
     inkscape:window-x="0"
     inkscape:window-y="37"
     inkscape:window-maximized="1"
     inkscape:current-layer="svg1" />
  <defs
     id="defs1" />
  <g
     id="g2"
     transform="matrix(0.98718417,0,0,0.92974458,0.43778136,10.024495)"
     inkscape:export-filename="limeleaf-logo.png"
     inkscape:export-xdpi="96"
     inkscape:export-ydpi="96">
    <path
       fill="#1ca838"
       opacity="1"
       stroke="none"
       d="m 108.16678,121.62621 c 1.06694,0.3334 2.34205,0.39712 3.16764,1.04327 6.21494,4.86406 11.29338,10.65774 13.67461,18.39927 1.5603,5.07254 1.25475,9.941 -2.37202,14.16725 -2.01415,2.34711 -4.64024,3.78015 -7.49156,4.837 -0.2609,0.0967 -0.51764,0.20472 -0.88335,0.34999 1.38513,0.44858 2.6722,0.76612 3.88044,1.27388 5.19718,2.18405 7.83162,6.67573 6.92738,12.26245 -1.31441,8.12106 -5.56897,14.49257 -12.04527,19.39451 -0.86147,0.65205 -1.93853,1.01529 -3.00452,1.4235 -0.25179,-3.81344 -0.44972,-7.53697 -0.56996,-11.26304 -0.1984,-6.14807 -0.34922,-12.29774 -0.51497,-18.44687 -0.0915,-3.39322 -0.18828,-6.78643 -0.25467,-10.1802 -0.10549,-5.39221 -0.18207,-10.78499 -0.28955,-16.17715 -0.009,-0.44434 -0.16026,-0.88581 -0.25222,-1.44647 0.005,-5.29104 0.0164,-10.46421 0.028,-15.63739 z"
       id="path7"
       style="display:inline;stroke-width:0.254793" />
    <path
       fill="#81c123"
       opacity="1"
       stroke="none"
       d="m 108.06696,121.60736 c 0.0882,5.19203 0.0766,10.3652 0.0722,15.66207 0.008,0.12373 0.003,0.1336 -0.0598,0.2115 -0.0714,0.6965 -0.0803,1.31503 -0.10463,2.05493 -0.10416,3.14122 -0.19583,6.16097 -0.28087,9.1809 -0.17126,6.08231 -0.34517,12.16455 -0.50642,18.24713 -0.19173,7.23268 -0.36338,14.46591 -0.56122,21.6984 -0.0558,2.03984 -0.17288,4.07796 -0.26186,6.11687 -1.05923,-0.50737 -2.22771,-0.86351 -3.16008,-1.5465 -6.314981,-4.62584 -10.459344,-10.76341 -11.78052,-18.54086 -1.254105,-7.38271 2.620058,-12.60514 9.95841,-14.00129 0.19394,-0.0369 0.38846,-0.0709 0.92093,-0.16778 -1.04932,-0.42506 -1.81417,-0.71092 -2.5598,-1.04084 -4.527444,-2.00336 -7.910627,-5.05931 -8.980559,-10.14702 -0.724558,-3.44538 -0.141336,-6.7881 1.11821,-10.00646 2.64879,-6.76806 7.250473,-12.03754 12.841389,-16.47342 0.8711,-0.69114 2.15274,-0.85753 3.34436,-1.24771 z"
       id="path8"
       style="display:inline;stroke-width:0.254793" />
    <path
       fill="#1c7258"
       opacity="1"
       stroke="none"
       d="m 106.38218,194.89064 c 0.0714,-2.15031 0.1885,-4.18844 0.2443,-6.22827 0.19784,-7.2325 0.36948,-14.46573 0.56123,-21.6984 0.16123,-6.08259 0.33515,-12.16482 0.50641,-18.24714 0.085,-3.01993 0.17671,-6.03968 0.33575,-9.25686 0.0844,-0.81721 0.0984,-1.43707 0.11234,-2.05694 0,0 0.004,-0.0101 0.004,-0.0157 0.0847,0.43697 0.23614,0.87844 0.245,1.32278 0.10749,5.39216 0.18407,10.78493 0.28956,16.17714 0.0664,3.39378 0.16319,6.78698 0.25466,10.1802 0.16576,6.14915 0.31657,12.2988 0.51497,18.44688 0.12024,3.72606 0.31818,7.44959 0.48237,11.28738 0.0298,2.23059 0.0528,4.34816 0.0891,6.46549 0.0249,1.45005 -0.53907,2.08254 -1.88562,2.08296 -1.33538,5.1e-4 -1.87038,-0.62118 -1.84205,-2.1217 0.0392,-2.07537 0.0708,-4.15089 0.0882,-6.33778 z"
       id="path9"
       style="display:inline;stroke-width:0.254793"
       inkscape:label="path9" />
  </g>
</svg>
