<?xml version="1.0" encoding="UTF-8" standalone="no"?>
<!-- Created with Inkscape (http://www.inkscape.org/) -->

<svg
   width="210mm"
   height="297mm"
   viewBox="0 0 210 297"
   version="1.1"
   id="svg1"
   sodipodi:docname="limeleaf-logo.svg"
   inkscape:version="1.3 (0e150ed, 2023-07-21)"
   xmlns:inkscape="http://www.inkscape.org/namespaces/inkscape"
   xmlns:sodipodi="http://sodipodi.sourceforge.net/DTD/sodipodi-0.dtd"
   xmlns="http://www.w3.org/2000/svg"
   xmlns:svg="http://www.w3.org/2000/svg">
  <sodipodi:namedview
     id="namedview1"
     pagecolor="#ffffff"
     bordercolor="#000000"
     borderopacity="0.25"
     inkscape:showpageshadow="2"
     inkscape:pageopacity="0.0"
     inkscape:pagecheckerboard="0"
     inkscape:deskcolor="#d1d1d1"
     inkscape:document-units="mm"
     inkscape:zoom="0.84096521"
     inkscape:cx="467.91472"
     inkscape:cy="726.54611"
     inkscape:window-width="1392"
     inkscape:window-height="891"
     inkscape:window-x="0"
     inkscape:window-y="37"
     inkscape:window-maximized="1"
     inkscape:current-layer="svg1" />
  <defs
     id="defs1" />
  <text
     xml:space="preserve"
     style="font-size:25.4px;line-height:0;font-family:'Roboto Slab';-inkscape-font-specification:'Roboto Slab';letter-spacing:0.238125px;fill:#1c7258;fill-opacity:1;stroke-width:3.86001;stroke-linejoin:round"
     x="60.470848"
     y="167.74162"
     id="text16"><tspan
       sodipodi:role="line"
       id="tspan16"
       style="font-style:normal;font-variant:normal;font-weight:normal;font-stretch:normal;font-size:25.4px;font-family:'SF Pro Rounded';-inkscape-font-specification:'SF Pro Rounded';letter-spacing:0.238125px;fill:#1c7258;fill-opacity:1;stroke-width:3.86"
       x="60.470848"
       y="167.74162">Limeleaf</tspan></text>
  <g
     id="g19"
     transform="matrix(0.55144759,0.34414547,-0.34414547,0.55144759,91.363155,13.390695)">
    <g
       id="g18"
       transform="matrix(1.0933955,-0.33794464,0.30754319,1.0171638,-63.869211,-7.712939)">
      <path
         fill="#1ca838"
         opacity="1"
         stroke="none"
         d="m 97.622689,122.70421 c 1.116882,0.0459 2.365031,-0.22257 3.329731,0.18788 7.26208,3.08977 13.66699,7.37164 17.97074,14.23308 2.82,4.49586 3.78491,9.27752 1.37556,14.29844 -1.33805,2.78843 -3.50376,4.85232 -5.98439,6.61114 -0.22698,0.16093 -0.44701,0.33172 -0.76266,0.56669 1.45403,0.0748 2.77943,0.0484 4.07792,0.22614 5.58536,0.7645 9.29257,4.42129 9.86509,10.05168 0.83226,8.18454 -1.62826,15.4401 -6.61517,21.8512 -0.66336,0.8528 -1.6097,1.48243 -2.53372,2.15263 -1.2302,-3.61833 -2.3851,-7.16376 -3.46563,-10.73175 -1.78287,-5.88723 -3.52021,-11.78832 -5.27182,-17.68502 -0.96661,-3.25392 -1.93832,-6.50646 -2.88082,-9.76741 -1.4975,-5.18117 -2.96723,-10.37037 -4.46664,-15.55098 -0.1237,-0.42687 -0.38406,-0.81415 -0.618,-1.33191 -1.36459,-5.11204 -2.692498,-10.11189 -4.020211,-15.1118 z"
         id="path16"
         style="stroke-width:0.254793" />
      <path
         fill="#81c123"
         opacity="1"
         stroke="none"
         d="m 97.521391,122.71184 c 1.428991,4.99229 2.756699,9.99219 4.123379,15.10971 0.0398,0.11743 0.0375,0.12827 -0.003,0.21977 0.1113,0.69125 0.26279,1.291 0.43079,2.01199 0.7124,3.06114 1.40542,6.00172 2.1049,8.94076 1.40879,5.91939 2.815,11.83939 4.23354,17.75645 1.68675,7.03585 3.39305,14.06704 5.07386,21.1043 0.47404,1.98477 0.88846,3.98375 1.33022,5.97621 -1.15445,-0.21593 -2.37529,-0.25751 -3.45266,-0.67591 -7.29706,-2.83378 -12.888728,-7.68958 -16.17784,-14.86008 -3.122157,-6.80656 -0.731668,-12.85375 5.99529,-16.10163 0.17779,-0.0858 0.35687,-0.16902 0.84612,-0.40042 -1.12358,-0.13899 -1.93635,-0.21715 -2.741965,-0.34285 -4.891681,-0.7633 -8.950523,-2.83949 -11.300794,-7.47692 -1.591601,-3.14046 -1.893412,-6.52023 -1.509756,-9.95492 0.806832,-7.223 3.887874,-13.50393 8.140192,-19.23569 0.662538,-0.89305 1.857442,-1.38548 2.907473,-2.07078 z"
         id="path17"
         style="stroke-width:0.254793" />
      <path
         fill="#1c7258"
         opacity="1"
         stroke="none"
         d="m 114.86113,193.93411 c -0.48758,-2.09552 -0.90197,-4.09451 -1.37602,-6.07928 -1.68081,-7.03726 -3.38711,-14.06845 -5.07385,-21.1043 -1.41855,-5.91706 -2.82476,-11.83706 -4.23355,-17.75645 -0.69951,-2.93903 -1.3925,-5.87962 -2.07155,-9.02834 -0.12999,-0.81121 -0.27689,-1.41357 -0.42386,-2.01593 0,0 0.001,-0.0107 -2e-4,-0.0162 0.19491,0.40016 0.45545,0.78739 0.57901,1.2143 1.49942,5.1806 2.96915,10.3698 4.46665,15.55097 0.94251,3.26096 1.91423,6.51348 2.88081,9.76741 1.75163,5.89672 3.48895,11.79779 5.27183,17.68503 1.08052,3.56798 2.23543,7.1134 3.38732,10.77793 0.6061,2.14687 1.17638,4.18633 1.75945,6.22212 0.39935,1.3942 0.0183,2.1511 -1.28226,2.50002 -1.28975,0.34612 -1.96742,-0.11592 -2.32842,-1.57265 -0.49928,-2.0148 -1.00594,-4.02777 -1.55514,-6.14465 z"
         id="path18"
         style="stroke-width:0.254793" />
    </g>
  </g>
  <text
     xml:space="preserve"
     style="font-style:normal;font-variant:normal;font-weight:normal;font-stretch:normal;font-size:25.4px;line-height:0;font-family:'SF Pro Rounded';-inkscape-font-specification:'SF Pro Rounded';letter-spacing:0.238125px;fill:#1c7258;fill-opacity:1;stroke-width:3.86001;stroke-linejoin:round"
     x="154.79237"
     y="114.52118"
     id="text19"><tspan
       sodipodi:role="line"
       id="tspan19"
       style="stroke-width:3.86"
       x="154.79237"
       y="114.52118" /></text>
</svg>
